<svg id="Calque_1" data-name="Calque 1" xmlns="http://www.w3.org/2000/svg" viewBox="0 0 1434.33 300.47"><defs><style>.cls-1{fill:#262262;}.cls-10,.cls-2,.cls-5,.cls-6,.cls-9{fill:#fff;}.cls-3{fill:#f0ce16;}.cls-3,.cls-4{opacity:0.82;}.cls-4{fill:none;stroke:#f0ce16;stroke-width:7px;}.cls-4,.cls-9{stroke-miterlimit:10;}.cls-5{font-size:36.58px;}.cls-10,.cls-5,.cls-6{font-family:MalvieTrial-Regular, Malvie Trial;}.cls-6{font-size:70.93px;}.cls-7{fill:#ffde17;}.cls-8{letter-spacing:-0.15em;}.cls-9{stroke:#fff;stroke-width:2px;}.cls-10{font-size:194.07px;}</style></defs><title>BANIERE KULMAPECK</title><rect class="cls-1" width="1434.33" height="300.47"/><path class="cls-2" d="M147.88,130.54,190.66,57s.62-3.27,0-3.58S147,27.72,146.36,28s-68,40-83.79,49.33c-2.08,1.23-1.45,3-.85,3.32Z"/><polygon class="cls-3" points="74.44 125.55 53.06 125.55 61.82 111.76 63.75 108.73 74.44 125.55"/><polygon class="cls-2" points="61.71 80.68 65.05 82.61 65.82 111.98 63.75 108.73 61.82 111.76 61.71 80.68"/><path class="cls-2" d="M199.94,60.27c1.25,1.34,2.25,3.19.77,7.34S157.4,140.75,156.17,141s-8.23,2.47-5.57-4.77c2.24-6.11,33.43-57.86,43.08-73.81C195.45,59.5,198.8,59.05,199.94,60.27Z"/><path class="cls-2" d="M162.43,176.81s-14-9.35-15.29-7.63,0-18.6,0-18.6,8.58,2.43,9.67,0-1.25,9.1,15.13,8.63c0,0,3.13,7.94,5.78,7.63S162.43,176.81,162.43,176.81Z"/><path class="cls-2" d="M146.58,174.16l10.7,5S149,186,146.58,186,146.58,174.16,146.58,174.16Z"/><path class="cls-2" d="M146.47,181.11c.15.06.09-.57.12-.69C146.34,180.56,146.47,181.27,146.47,181.11Z"/><polygon class="cls-2" points="144.06 182.53 144.11 182.28 143.75 182.91 144.06 182.53"/><path class="cls-2" d="M141.82,182.52c.21,1.07.81-.17,1.21.21l.07.24.18-.86C142.79,182.25,142.16,182.82,141.82,182.52Z"/><path class="cls-2" d="M140.62,180.21c.07.42-.26.36.28.13a.88.88,0,0,1-.05-.11A.59.59,0,0,1,140.62,180.21Z"/><path class="cls-2" d="M140.85,180.23c.24,0-.15-.35,0,0Z"/><path class="cls-2" d="M139.76,180.47l.31-.37c-.07-.25-.34-.3-.24-.48C139.51,179.82,139.57,180.07,139.76,180.47Z"/><path class="cls-2" d="M139.46,181.25l.16-.16C139.59,181,139.55,181,139.46,181.25Z"/><path class="cls-2" d="M140,180.76l-.34.33c0,.17,0,.52.16-.12C139.75,181.29,139.82,181,140,180.76Z"/><path class="cls-2" d="M140.16,180.92c.17.23.4.38.09.75C140.84,181.53,140.75,180.77,140.16,180.92Z"/><path class="cls-2" d="M141.7,183.63l.23.31.2-.36C142,183.76,141.69,183.29,141.7,183.63Z"/><path class="cls-2" d="M137.81,179.91a8.23,8.23,0,0,0,.13.9l.23-.26C138.05,180.4,137.83,180.25,137.81,179.91Z"/><path class="cls-2" d="M137.94,180.81l-.34.39C137.91,181.25,138,181.06,137.94,180.81Z"/><polygon class="cls-2" points="139.41 182.44 139.97 181.62 139.3 182.45 139.41 182.44"/><polygon class="cls-2" points="136.5 179.89 136.69 179.36 136.35 180.16 136.5 179.89"/><path class="cls-2" d="M135.63,180c.14-.44-.2-.74,0-1-.24.08-.44.45-.62.79C135.15,179.57,135.36,179.62,135.63,180Z"/><path class="cls-2" d="M134.65,180.25a2.8,2.8,0,0,0,.31-.49A1.43,1.43,0,0,0,134.65,180.25Z"/><path class="cls-2" d="M137,181.09a1.14,1.14,0,0,0-.27-.65l.14.64Z"/><path class="cls-2" d="M136.88,181.1v0l-.29,0Z"/><path class="cls-2" d="M137,181.09h0C137,181.15,137,181.18,137,181.09Z"/><path class="cls-2" d="M138.5,181.86c-.2.36-.62.74-.22,1.29C138.43,182.71,138.2,182.4,138.5,181.86Z"/><path class="cls-2" d="M137.21,181.9l.37.15a1.12,1.12,0,0,1,0-.59Z"/><polygon class="cls-2" points="137.03 182.1 137.21 181.9 137.08 181.84 137.03 182.1"/><path class="cls-2" d="M135.28,180.85a.65.65,0,0,1-.53.35,1.22,1.22,0,0,0,.63.19C135.41,181.19,135.5,180.83,135.28,180.85Z"/><path class="cls-2" d="M136.06,181l0,0C136,181.12,136.06,181.14,136.06,181Z"/><path class="cls-2" d="M132.83,181.2l0,.12s0-.07,0-.11Z"/><path class="cls-2" d="M135.42,181.51c.16.12.25,0,.34-.23a.85.85,0,0,1-.38.11C135.37,181.48,135.37,181.54,135.42,181.51Z"/><path class="cls-2" d="M134.12,180.55a2.19,2.19,0,0,0,.27.35C134.31,180.7,134.15,180.39,134.12,180.55Z"/><path class="cls-2" d="M136,180.89l0,0C135.94,180.72,135.95,180.79,136,180.89Z"/><path class="cls-2" d="M136,180.89a1.74,1.74,0,0,0-.21.39.83.83,0,0,0,.26-.21A1.11,1.11,0,0,1,136,180.89Z"/><path class="cls-2" d="M132.25,185.31c0-.59.44-1.14.8-.51.35-.45.12-2.4-.19-3.49a1,1,0,0,1-.37.85c.13.32.8.76.5,1.3-.48.31-.39-.21-.63-.52.2.74-.61,1.08-.5,2.17l.42-.38C132.28,184.89,132.13,185.16,132.25,185.31Z"/><path class="cls-2" d="M133.55,181.37l.15-.07c-.17-.1-.29-.34-.51-.81a1.16,1.16,0,0,0-.32.71l.73.08Z"/><path class="cls-2" d="M134.37,181.3c-.12.65-.47.92-.25,1.62.44,0,.31-.54.57-.82-.7.16.2-.36-.31-.73a.87.87,0,0,1,.38-.17,1.87,1.87,0,0,1-.36-.3l0,0h0c0,.08,0,.13,0,.08h0a1.83,1.83,0,0,1,0,.24c-.2-.13,0-.17,0-.24s0-.06,0-.1h0l-.71.35C133.85,181.39,134,181.37,134.37,181.3Z"/><path class="cls-2" d="M137.91,184.54a.42.42,0,0,1,0-.15C137.84,184.47,137.82,184.52,137.91,184.54Z"/><path class="cls-2" d="M137.62,184.15c.05-.09.09-.35.26-.28s0,.31,0,.52c.1-.17.35-.46,0-.78l0,.09a2.3,2.3,0,0,1-.6-1.12A8.11,8.11,0,0,0,137.62,184.15Z"/><path class="cls-2" d="M136,182.89l-.59.32.3.56,0-.34C136,183.56,135.93,183.15,136,182.89Z"/><polygon class="cls-2" points="132.76 180.87 132.84 180.19 132.5 181.16 132.76 180.87"/><polygon class="cls-2" points="132 180.96 132.03 180.36 131.83 180.72 132 180.96"/><path class="cls-2" d="M88.9,188.32l-.17.17A.54.54,0,0,0,88.9,188.32Z"/><path class="cls-2" d="M90.15,188.36l0-.29C90.13,188.23,90.1,188.35,90.15,188.36Z"/><path class="cls-2" d="M113.24,181c-.25-.55-.53-1.41-.5-.75l.08.65C113,180.81,113.13,180.88,113.24,181Z"/><path class="cls-2" d="M100.4,184.91l.07.2.17-.62Z"/><path class="cls-2" d="M100.22,187.6l-.33-.42A1.42,1.42,0,0,0,100.22,187.6Z"/><path class="cls-2" d="M82.08,189l-.2.66C82.19,189.67,82.05,189.34,82.08,189Z"/><path class="cls-2" d="M124.18,181.2a1,1,0,0,0-.54-.39C123.9,181.18,124.11,181.74,124.18,181.2Z"/><path class="cls-2" d="M89.4,181.41a.55.55,0,0,0-.15.4A.45.45,0,0,0,89.4,181.41Z"/><path class="cls-2" d="M123,180.8a1.82,1.82,0,0,0,.11.15.65.65,0,0,1,.51-.16C123.44,180.52,123.22,180.35,123,180.8Z"/><path class="cls-2" d="M57.31,188.47a.69.69,0,0,1-.06-.08C57.25,188.48,57.28,188.49,57.31,188.47Z"/><path class="cls-2" d="M50.1,181.9a.8.8,0,0,1,.3,0C50.34,181.81,50.25,181.81,50.1,181.9Z"/><path class="cls-2" d="M128.93,180.67c.16,0,0-.07,0,0Z"/><path class="cls-2" d="M129.72,183.25a.76.76,0,0,0-.06.32A1,1,0,0,1,129.72,183.25Z"/><path class="cls-2" d="M121.4,184.86h0C121.43,185,121.42,185,121.4,184.86Z"/><path class="cls-2" d="M129.17,181a.78.78,0,0,0-.21-.19A.83.83,0,0,0,129.17,181Z"/><path class="cls-2" d="M129.14,180.66l.14.06C129.3,180.61,129.28,180.55,129.14,180.66Z"/><path class="cls-2" d="M128.7,180.71a.43.43,0,0,1,.26.07s0-.08,0-.1Z"/><path class="cls-2" d="M70.58,186.73l0-.06C70.38,186.94,70.45,186.9,70.58,186.73Z"/><path class="cls-2" d="M109,187.78l0,0,0,0Z"/><path class="cls-2" d="M108.45,188.27c.25-.81.39-.71.58-.54l-.19-1.88Z"/><path class="cls-2" d="M85.91,188.51l.41.58c-.49,1-.85.63-.47,1.45.06-2,1.59-.21,1.64-2.24l.27.43c-.08,0-.09.1-.17.08.52,1,.39-1.47,1.06-1.18a.52.52,0,0,1,.24.69l.52-.5c.15,0,.12.39,0,.35l.8-.16v.06a7.32,7.32,0,0,1,.5-1c.2.29-.1.22,0,.47l.44-.49c.18.53-.19,1-.49,1,.41,2,.37-.51,1.26.68l-.42.26c.27,1.16.6.74,1.07,1.46-.11-.38-.95-1.82-.47-2.32.14.15.31.23.57-.18,0,.72.26.55.57.51l0,1c.34-.28.32-.77.52-1.2.38.09.46.84.55,1.46.61.15-.42-1.19.3-1.37.51.37.86,0,1.47-.6.36.33-.06.59.07.86l.32-.77c.08,0,.05.25,0,.37.27-.3,0-1,.44-1.22.11-1.06.86,1.54,1.37.34.13.27-.06.59,0,1a5.2,5.2,0,0,0,1.19-1.63l.5.63c-.36-.72.1-1.57.51-2.27-.13-.35-.24-.65-.31-.8l.65-.51a1.63,1.63,0,0,1-.09.89l.12-.23a1.83,1.83,0,0,1-.05,1.44c-.08-.19-.16-.39-.23-.59a5.83,5.83,0,0,0-.28,1.79.53.53,0,0,1,.21-.26,1,1,0,0,0,0,.4c0,.1.09-.11.2-.36l.15,1.07,0-.42.85.67c.61-1.08,1.14-2.66,2.11-3.1a7.08,7.08,0,0,0-.06,2.21c-.26-1-.75.42-1.25.22.26.1.2.55.14.7l.89-.9c0,.76.19.57.42.88-.18-1.5.67-1,1-1.46,0,.5-.06,1-.51.9.49,1.13.63-1.76,1.11-.8-.11,0-.17-.07-.21.19a.4.4,0,0,1,.73.35h-.11c.72.18,2.19,0,2.3-1.26,0,.16-.09,1.54-.14,1.8l1.28-4.29c-.11,1.1.32,3.71-.28,4.32.17.16.38.34.74,0a3.55,3.55,0,0,1-.13-1.68,7,7,0,0,0,.84,1.69c-.18-.24,0-2,.3-1.9,0,.26,0,1.7-.08,1.88l.69-1.69a3.91,3.91,0,0,0,.12,1.91c-.07-.33.6,0,.78-.14l-.29-.39c.78.25.77-2.37,1.54-2.28-.09.35-.23,2.14.16,2.36.18-.86.8-4.16,1.48-4.82l.13.49.52-.56a40.26,40.26,0,0,1-1.74,5.1c.29.39.08.58.52.54a.56.56,0,0,1-.37.73l1,.3c0-1,.78-1,.74-1.85l-1.1,1c0-1,.64-2.86,1.36-2.68a8.89,8.89,0,0,1-.12,2.13c.09-.35.68-.66.75-.42l-.31.54c.4.38.65-1.34,1.13-.37.17.06.5,1.3.52.7a23.4,23.4,0,0,1-.14-5.57,8.28,8.28,0,0,1,1.06,1.67c.27.9-.41,2.15-.18,2.93a1.9,1.9,0,0,1,.22-.72c.17.24-.07.85.31.73.06-1,.77.09.18-.86.37-.29.39.21.83.17a4,4,0,0,1,.76-2.54,2.53,2.53,0,0,0,.1.75c.76.09,1.17.56,1.88.57.07.25.41.55.26,1,.1-.18.2-.53.41-.55.42.88-.49.14-.16,1.2,0-.59.57-.82.88-1.19-.1-.92-.72-.18-1,.19a4.3,4.3,0,0,1,1.28-3.18c.59-.31.26.82.36.64,1.11.22.94-2.21,1.86-1.3.36.81,0,1.6.1,2.19-.48.31-.74-.51-1.06-.48l.4.38c-.15.27-.47.47-.65.24.31.72,1.87.14,2.72.81.15-.27.41-.55.29-.87l-.27.11c-.25-.65.51-.9.17-1.2.36-.46.77-1.18,1.28-.81l.1.92c0-.27-.33-.55-.48-.27.21-.41.78,1.24,1,0l-.36-.64c.36-.46.81-1.44,1.26-1.15-.21-.91-.1.1-.43-1,.28,1.32-1.16-.06-.71,1.33-.33-1.23-.57-.52-1-1.57,0,.3.15.58-.23.43a1.75,1.75,0,0,1-.08.27l0,0,0,0s0,.05,0,0a1.2,1.2,0,0,1,.19.46c-.19.7-.79.67-1,1-.22-.14.09-.35,0-.67l-.3.54c0-.67-.6-1.12-.07-1.51l-.48,0c-.28-.38-.67-.53-.91-.24-.22-.15-.57.75-.37.22l-.75.42v-.17c-.74-.08-1.52,1.12-2.36-.1a.83.83,0,0,1-.92.19l-.08-.58c-.32.2-1-.58-1.1,0-.34-1.57-1.55-.34-2.11-.62l0,.76a2,2,0,0,0-1.24.48l0,.67c-.41.55-1.06-.48-1.72-.41,0-.26.21-.19.33,0-.78-1.52-1.65,1.11-2.36,0-.18.24-.3.16-.43,0a.06.06,0,0,0,0,0h-.07c-.08-.12-.16-.25-.25-.36a1.42,1.42,0,0,0,.21.36,1.11,1.11,0,0,0-.54.27l-.09-.72,0,0c-.2-.27-.16.34-.05.89a1.61,1.61,0,0,0-.27.44c-.16-1.17-.53.39-.75-.85-.14.61-1,.46-1.13,1.73,0-.17-.07-.25,0-.26-.23-.15-.45-.29-.65.07l-.1-.92-.49,1.23a1.51,1.51,0,0,1-.13-1.59c-.72,1.09-.58.41-1.19,1.49l0-.59c-.22,0-.57.82-.7.33-.49-1.13-2.41-.16-3.67-1.2.24,1.75-.58-.78-.63.57-.07-.41-.25-.65,0-1-.64.41-1-.66-1.4.49-.07-.42.14-.61.07-.85-.05.09-.2.36-.27.11s.09-.35.19-.53c-.65.07-.72,1.34-.77,2.54-.33-.57-.5-.49-.74.3-.12-.39-.31-.8.1-.94-.23-.06-1.39-.57-1.42.39-.07-.24-.32-.07-.38,0a2.58,2.58,0,0,0-1.06-.05l.14.16c-.2,1.16-.42.26-.82.4v-.12c-.93-.83-.4.4-1.32-.55l0,.72c-.09,1.55-.81-.91-1.34-.32l.19.41c-.29.53-.81-2.1-1.1-2.3-.06-.13.1-.22.19-.32-.76-.91-.1.94-.67,1.16-.11-.51.14-1.29-.25-1.39-.19-.41-1.11,1.65-1.64.68.12.39.23.78,0,1.08-.41.14-1.1-1.48-1.46-.25a.73.73,0,0,1-.07-.31c-.31.32-1,.53-1.19,1.2-.29-2.49-1.93,1.21-1.92-1.08l-1,.12,0-.23c-.61-.15-.83.4-1,.95-.14-.16,0-.37,0-.49-.89-.46-1-.36-1.73.78l-.08-.74c-.2.43-1.29-1.17-2.16-.3a.77.77,0,0,1,.1-.33c-1,.87-2.35-2.06-2.71.65l-.65.67c.84.21-.12,1.17.22,1.62-.33.16-.85-.82-.45-1l.06.14c.15-1.41-1-.5-1-1.46-1.65.07-3.26-.71-4.81-.77l.18,1.1-.54-.06c-.14-.26-.19-.86.19-.81-.2-.62-.65.52-.66.76-.75-.44.29-1.28.06-1.31l-.31.08.07.13c-.25.45-.28.92-.74.87-.29-.22-.15-.68-.27-.72s0-.11-.18,0l-.68-.09.27.87c-.3.43-.64,0-.33.94-.46-1.51-2.54-.54-2.82-1a1.15,1.15,0,0,1-1.35.54c.13.18.21,1.15-.24,1,.16-2-.81-.87-1.17-2.32.32,1-1.26.24-.76,1.6-.37-.16,0-.75-.3-1.23-.88.78-1.95-.51-3-.24,0,.26.17.67-.07,1.06l-.58-1.32c-.22.13-.2,1.52-.59.61.06.22.14.56,0,.64-2.14-1.29-4.37,1.05-6.55-1.36.29.51.1.56-.13.58.15.12,0,.65,0,1l-.91-1c-.17,1-1,.07-1.07,1l.29-.17c-.38,1.12.54,2.49.48,3.93.43-1.27,1.13,1.89,1.84.06.16.29-.13.46,0,.8.18-.62.39-.74.79-.47l0,.15c1.12-.15,1.6.46,2.86.86l-.09-.71c.27.1.33.32.45.5.31-1.08-.76-.06-.48-1.25.36,1.45,1.91,0,2.15,1.66.42,0-.12-.82.29-.81l.11.44.11-.57c.27.09.41.65.42,1-.07,0-.19.11-.26.14.35.52,1-.18,1.12,0l-.4-.27c1.14-.42,2.53.17,3.62-.74l-.08-.34c.84-.62.67.37,1.59.08l0,.08c.18-.33.43-.5.68-.46-.23.39.44.76.13,1.2.91-.67.45-.52,1.05-1.77l.14.56c.2-.5.22-.77.68-.91-.38.48.29.85-.13,1.48,1,1.22,1.43-1.23,1.88.55.44-1.54-.84-.85-.59-1.18-.21-.5.37-1.15.67-1s.52,2,1.3,1.94c-.08,0-.08.11-.16.1.29.39.57-.53.92.11.2-.93.46.05.52-1.13l-.71.27c.4-.31.78-1.7,1.45-1a2.2,2.2,0,0,1-.39.73c.19.35.37-.23.58.13-.06,1.19-.86.26-1.3,1.16.21.5.82-.86.6.43.31-1.64.76.21,1.29-1l0,.71c.08-.11.26-.45.41-.43l-.28.92c.43-.79.82.69,1.23.26-.85,0-.19-.86-.55-1.38,1.05-1,.61,1.86,1.78,1.52-.16.1-.6-.43-.35-.76a1.7,1.7,0,0,1,.66.79c.78-.15-.12-.73.21-1.17.27.87.38-.35.73-.63V188c.89.46.24-1.51,1-.95l-.34,1,.42-.26-.09.82c.45-.61.6-.45,1-.22-.1-.51.06-1.31.45-1.34.27.43-.15.69.41.58-.13.45-.26,1-.51.35,0,.24-.12.45-.15.69.29.49.73.11.93.11a.34.34,0,0,1-.22-.17l.81-1a.76.76,0,0,1-.07.7c.16-.08.28-.41.52-.47-.06.59,0,1.2-.39,1.47l.77-.65c.05.26.4.7.3.92.43.35,1-1.14,1.62-.68a.52.52,0,0,1,.21-.31c.53.13,1,.85,1.64,0l.36,1.05c.5-.24-.49-1.33.34-1.73.58-.34.22.9.42,1.19.29-.53.79-1.61,1.33-.76C86.21,188.59,86.08,188.43,85.91,188.51ZM92,188c-.12.15-.35.62-.44.19C91.71,187.41,91.81,187.8,92,188Zm9.28-1.74c-.09.24-.22.12-.38-.15C101,186.09,101.16,186.11,101.3,186.3Zm25.86-5v0C126.88,181,127,181.12,127.15,181.26Zm.55.31a.41.41,0,0,0,0-.3c0,.18-.16.2-.3.14C127.47,181.61,127.54,181.74,127.7,181.57Zm-58.85.29L69,182C68.72,182.26,68.78,182.07,68.85,181.86Z"/><path class="cls-2" d="M100.24,187.29a1.93,1.93,0,0,1-.05-.39A.39.39,0,0,0,100.24,187.29Z"/><path class="cls-2" d="M82.11,188.89h0a.82.82,0,0,0,0,.13Z"/><path class="cls-2" d="M119.21,187.71a.81.81,0,0,1-.22-.37C119,187.51,119,187.66,119.21,187.71Z"/><path class="cls-2" d="M130.6,180.34l-.35.19c.17,0,.23.12.32.24C130.56,180.6,130.49,180.36,130.6,180.34Z"/><path class="cls-2" d="M133.65,184.82c.05-.09.11,0,.16-.1v-.34C133.58,184.41,133.43,184.68,133.65,184.82Z"/><path class="cls-2" d="M130.93,182.75c0,.61.25.4.49.29h0C131.45,182.19,131.19,182.47,130.93,182.75Z"/><path class="cls-2" d="M131.48,183a.31.31,0,0,1,.23,0C131.74,182.66,131.62,182.93,131.48,183Z"/><path class="cls-2" d="M128.4,181.17c.12.16.07-.78.14-.53C128.66,179.87,127.76,181.58,128.4,181.17Z"/><polygon class="cls-2" points="131.13 184.75 131.04 184 130.9 184.61 131.13 184.75"/><path class="cls-2" d="M129.19,184.2l.39.21a.3.3,0,0,1,.11-.26C129.44,184.13,129.18,184,129.19,184.2Z"/><path class="cls-2" d="M129.69,184.15A.29.29,0,0,0,130,184,.59.59,0,0,0,129.69,184.15Z"/><polygon class="cls-2" points="130.59 184.98 130.47 184.82 130.2 184.77 130.59 184.98"/><path class="cls-2" d="M125,184.06l-.43.22c0,.26.07.42.23.31S125,184.31,125,184.06Z"/><path class="cls-2" d="M126.26,186.12a1.57,1.57,0,0,1-.19-.57v.93Z"/><path class="cls-2" d="M125,186.33c0,.26-.62.74-.08.68C125,186.76,125.4,186.55,125,186.33Z"/><polygon class="cls-2" points="118.55 185.16 118.66 185.14 118.64 183.62 118.55 185.16"/><path class="cls-2" d="M112.85,188.81c.51.37.12-.94.58-.49.12-.36-.38-.37-.25-.68C112.87,188,112.71,187.81,112.85,188.81Z"/><path class="cls-2" d="M113.18,187.64a1.57,1.57,0,0,0,.16-.23A.74.74,0,0,0,113.18,187.64Z"/><polygon class="cls-2" points="48.9 181.09 48.57 180.77 48.78 181.28 48.9 181.09"/><path class="cls-2" d="M48.27,182.22l-.08-1-.2.88C48.07,182.08,48.22,182,48.27,182.22Z"/><path class="cls-2" d="M92.92,190l0-.23c-.05-.25-.13-.27-.28-.31Z"/><polygon class="cls-2" points="88.49 189.27 88.57 189.29 88.42 188.41 88.49 189.27"/><path class="cls-2" d="M84.77,190.4c.15,0,.33-.16.48-.12C84.92,190.43,84.73,189.3,84.77,190.4Z"/><path class="cls-2" d="M92.15,105c8.87,3.77,52.57,30.72,52.57,30.72s.83.62.86.93c.22,2.23-4.68,7.63-4.68,7.63l-.47,37.7L86.5,153.5S83.28,101.19,92.15,105Zm14.69,55V131.87C97.09,119.25,94.26,127,94.26,127v27.22m38.57,3.67V146.7c-2.64-10.86-8.86-5.43-8.86-5.43v11.25"/><circle class="cls-4" cx="149.82" cy="150.23" r="124.18"/><text class="cls-5" transform="translate(43.1 219.11)">KULMAPECK</text><path class="cls-2" d="M227.85,76.83c1.25,1.34,2.26,3.18.78,7.33s-43.23,73.12-44.47,73.39-8.23,2.48-5.59-4.75C180.81,146.69,212,95,221.58,79,223.35,76.07,226.71,75.62,227.85,76.83Z"/><text class="cls-6" transform="matrix(0.97, 0, 0, 1, 639.87, 263)">Instruire Pour P<tspan class="cls-7" x="528.8" y="0">a</tspan><tspan x="572.99" y="0">nse</tspan><tspan class="cls-8" x="685.84" y="0">r</tspan><tspan class="cls-7" x="708.19" y="0">...</tspan></text><line class="cls-9" x1="167.76" y1="147.27" x2="178.03" y2="129.87"/><line class="cls-9" x1="185.29" y1="117.57" x2="195.57" y2="100.17"/><line class="cls-9" x1="201.4" y1="90.29" x2="211.68" y2="72.89"/><text class="cls-10" transform="translate(299.74 166)">KULMAPECK</text></svg>