<svg id="Calque_1" data-name="Calque 1" xmlns="http://www.w3.org/2000/svg" xmlns:xlink="http://www.w3.org/1999/xlink" viewBox="0 0 1434.33 300.47"><defs><style>.cls-1,.cls-13,.cls-6,.cls-7{fill:#262262;}.cls-2,.cls-8{fill:#f0ce16;}.cls-2,.cls-5{opacity:0.82;}.cls-3{fill:#2d2b6e;}.cls-4{fill:#2b2969;}.cls-5{fill:none;stroke:#f0ce16;stroke-width:7px;}.cls-10,.cls-11,.cls-12,.cls-5{stroke-miterlimit:10;}.cls-6{font-size:37.53px;}.cls-13,.cls-6,.cls-7{font-family:MalvieTrial-Regular, Malvie Trial;}.cls-7{font-size:64.49px;}.cls-9{letter-spacing:-0.15em;}.cls-10,.cls-11,.cls-12{stroke:#2b2969;stroke-width:2px;}.cls-10{fill:url(#Orange_Jaune);}.cls-11{fill:url(#Orange_Jaune-2);}.cls-12{fill:url(#Orange_Jaune-3);}.cls-13{font-size:224.76px;}</style><linearGradient id="Orange_Jaune" x1="88.12" y1="332.49" x2="101.55" y2="332.49" gradientTransform="matrix(0.93, 0.16, 0.08, 0.79, 66.94, -129.49)" gradientUnits="userSpaceOnUse"><stop offset="0" stop-color="#fff33b"/><stop offset="0.04" stop-color="#fee72e"/><stop offset="0.12" stop-color="#fed51b"/><stop offset="0.2" stop-color="#fdca10"/><stop offset="0.28" stop-color="#fdc70c"/><stop offset="0.67" stop-color="#f3903f"/><stop offset="0.89" stop-color="#ed683c"/><stop offset="1" stop-color="#e93e3a"/></linearGradient><linearGradient id="Orange_Jaune-2" x1="111.04" y1="289.38" x2="124.47" y2="289.38" xlink:href="#Orange_Jaune"/><linearGradient id="Orange_Jaune-3" x1="132.1" y1="249.78" x2="145.53" y2="249.78" xlink:href="#Orange_Jaune"/></defs><title>BANIERE KULMAPECK svg</title><path class="cls-1" d="M156,139.57l43.9-75.44s.64-3.36,0-3.68-44.82-26.37-45.46-26.05S84.68,75.49,68.52,85c-2.14,1.26-1.49,3-.87,3.4Z"/><polygon class="cls-2" points="85.74 129.91 63.06 129.91 72.36 115.27 74.4 112.05 85.74 129.91"/><polygon class="cls-3" points="72.24 82.29 75.77 84.34 76.59 115.5 74.4 112.05 72.36 115.27 72.24 82.29"/><path class="cls-4" d="M209.46,67.48c1.28,1.38,2.31,3.27.79,7.53s-44.42,75-45.69,75.31-8.44,2.54-5.72-4.89c2.3-6.27,34.3-59.37,44.19-75.73C204.85,66.69,208.29,66.23,209.46,67.48Z"/><path class="cls-4" d="M171,187s-14.41-9.59-15.69-7.83,0-19.08,0-19.08,8.8,2.49,9.92,0-1.28,9.34,15.53,8.86c0,0,3.21,8.15,5.93,7.83S171,187,171,187Z"/><path class="cls-4" d="M154.72,184.32l11,5.11s-8.49,7-11,7S154.72,184.32,154.72,184.32Z"/><path class="cls-1" d="M154.6,191.54c.15.06.1-.57.12-.69C154.47,191,154.61,191.71,154.6,191.54Z"/><polygon class="cls-1" points="152.09 192.97 152.14 192.72 151.77 193.34 152.09 192.97"/><path class="cls-1" d="M149.75,193c.22,1.07.85-.17,1.27.21l.07.24.19-.86C150.77,192.69,150.11,193.26,149.75,193Z"/><path class="cls-1" d="M148.5,190.64c.08.42-.27.36.29.13a.87.87,0,0,1-.05-.11A.64.64,0,0,1,148.5,190.64Z"/><path class="cls-1" d="M148.74,190.67c.25,0-.16-.35,0,0Z"/><path class="cls-1" d="M147.6,190.91l.32-.37c-.07-.25-.36-.3-.25-.48C147.34,190.26,147.41,190.5,147.6,190.91Z"/><path class="cls-1" d="M147.29,191.69l.17-.16C147.43,191.43,147.39,191.39,147.29,191.69Z"/><path class="cls-1" d="M147.82,191.2l-.36.33c0,.17.05.52.16-.12C147.6,191.73,147.67,191.42,147.82,191.2Z"/><path class="cls-1" d="M148,191.36c.18.23.42.38.09.75C148.73,192,148.64,191.21,148,191.36Z"/><path class="cls-1" d="M149.63,194.07l.24.31.21-.36C150,194.2,149.62,193.73,149.63,194.07Z"/><path class="cls-1" d="M145.58,190.35a7.91,7.91,0,0,0,.13.9L146,191C145.83,190.83,145.59,190.69,145.58,190.35Z"/><path class="cls-1" d="M145.71,191.25l-.36.39C145.67,191.69,145.73,191.5,145.71,191.25Z"/><polygon class="cls-1" points="147.24 192.88 147.83 192.06 147.12 192.89 147.24 192.88"/><polygon class="cls-1" points="144.21 190.32 144.41 189.8 144.05 190.59 144.21 190.32"/><path class="cls-1" d="M143.3,190.42c.15-.44-.21-.74,0-1-.25.08-.46.45-.65.79C142.8,190,143,190.06,143.3,190.42Z"/><path class="cls-1" d="M142.28,190.69a2.79,2.79,0,0,0,.32-.49A1.42,1.42,0,0,0,142.28,190.69Z"/><path class="cls-1" d="M144.74,191.53a1.11,1.11,0,0,0-.28-.65l.14.64Z"/><path class="cls-1" d="M144.6,191.54v0l-.31,0Z"/><path class="cls-1" d="M144.78,191.53h0C144.75,191.59,144.76,191.61,144.78,191.53Z"/><path class="cls-1" d="M146.29,192.3c-.21.36-.65.74-.23,1.29C146.22,193.15,146,192.84,146.29,192.3Z"/><path class="cls-1" d="M145,192.33l.38.15a1.08,1.08,0,0,1,0-.59Z"/><polygon class="cls-1" points="144.76 192.54 144.95 192.34 144.81 192.28 144.76 192.54"/><path class="cls-1" d="M142.93,191.29a.68.68,0,0,1-.55.35,1.31,1.31,0,0,0,.66.19C143.07,191.63,143.17,191.27,142.93,191.29Z"/><path class="cls-1" d="M143.75,191.47l0,0C143.73,191.56,143.75,191.58,143.75,191.47Z"/><path class="cls-1" d="M140.38,191.63l0,.12s0-.07,0-.11Z"/><path class="cls-1" d="M143.08,192c.16.12.26,0,.36-.23a.91.91,0,0,1-.39.11C143,191.92,143,192,143.08,192Z"/><path class="cls-1" d="M141.72,191a2.2,2.2,0,0,0,.28.35C141.92,191.14,141.75,190.82,141.72,191Z"/><path class="cls-1" d="M143.65,191.33l0,0C143.62,191.16,143.63,191.23,143.65,191.33Z"/><path class="cls-1" d="M143.65,191.33a1.71,1.71,0,0,0-.22.39.86.86,0,0,0,.27-.21A1.08,1.08,0,0,1,143.65,191.33Z"/><path class="cls-1" d="M139.77,195.75c0-.59.46-1.14.83-.51.37-.45.13-2.4-.19-3.49a1,1,0,0,1-.39.85c.13.32.84.76.52,1.3-.5.31-.41-.21-.65-.52.21.74-.64,1.08-.53,2.17l.44-.38C139.81,195.32,139.65,195.59,139.77,195.75Z"/><path class="cls-1" d="M141.13,191.81l.16-.07c-.18-.1-.3-.34-.54-.81a1.14,1.14,0,0,0-.33.71l.76.08Z"/><path class="cls-1" d="M142,191.73c-.12.65-.49.92-.27,1.62.46,0,.32-.54.59-.82-.73.16.21-.36-.32-.73a.93.93,0,0,1,.4-.17,1.94,1.94,0,0,1-.38-.3l0,0h0c0,.08,0,.13,0,.08h0a1.76,1.76,0,0,1,0,.24c-.21-.13,0-.17,0-.24s0-.06,0-.1h0l-.74.35C141.44,191.83,141.64,191.81,142,191.73Z"/><path class="cls-1" d="M145.68,195a.4.4,0,0,1,0-.15C145.61,194.91,145.59,195,145.68,195Z"/><path class="cls-1" d="M145.37,194.59c.05-.09.1-.35.27-.28s0,.31,0,.52c.1-.17.37-.46,0-.78l-.05.09A2.27,2.27,0,0,1,145,193,7.83,7.83,0,0,0,145.37,194.59Z"/><path class="cls-1" d="M143.66,193.33l-.61.32.31.56,0-.34C143.69,194,143.61,193.58,143.66,193.33Z"/><polygon class="cls-1" points="140.31 191.31 140.39 190.63 140.04 191.59 140.31 191.31"/><polygon class="cls-1" points="139.51 191.39 139.54 190.8 139.33 191.16 139.51 191.39"/><path class="cls-1" d="M94.58,198.76l-.18.17A.56.56,0,0,0,94.58,198.76Z"/><path class="cls-1" d="M95.88,198.8l0-.29C95.85,198.67,95.83,198.79,95.88,198.8Z"/><path class="cls-1" d="M120,191.46c-.26-.55-.56-1.41-.52-.75l.08.65A.31.31,0,0,1,120,191.46Z"/><path class="cls-1" d="M106.56,195.35l.08.2.18-.62Z"/><path class="cls-1" d="M106.38,198l-.35-.42A1.43,1.43,0,0,0,106.38,198Z"/><path class="cls-1" d="M87.46,199.45l-.21.66C87.58,200.11,87.43,199.77,87.46,199.45Z"/><path class="cls-1" d="M131.36,191.63a1.08,1.08,0,0,0-.56-.39C131.07,191.61,131.29,192.17,131.36,191.63Z"/><path class="cls-1" d="M95.09,191.85a.54.54,0,0,0-.15.4A.44.44,0,0,0,95.09,191.85Z"/><path class="cls-1" d="M130.14,191.24a1.84,1.84,0,0,0,.12.15.69.69,0,0,1,.53-.16C130.59,191,130.36,190.79,130.14,191.24Z"/><path class="cls-1" d="M61.64,198.91a.7.7,0,0,1-.06-.08C61.57,198.92,61.6,198.92,61.64,198.91Z"/><path class="cls-1" d="M54.12,192.34a.87.87,0,0,1,.31,0C54.37,192.25,54.28,192.25,54.12,192.34Z"/><path class="cls-1" d="M136.31,191.11c.17,0,0-.07,0,0Z"/><path class="cls-1" d="M137.13,193.68a.73.73,0,0,0-.07.32A.94.94,0,0,1,137.13,193.68Z"/><path class="cls-1" d="M128.46,195.29h0C128.49,195.42,128.49,195.39,128.46,195.29Z"/><path class="cls-1" d="M136.57,191.41a.8.8,0,0,0-.22-.19A.85.85,0,0,0,136.57,191.41Z"/><path class="cls-1" d="M136.53,191.1l.15.06C136.7,191.05,136.68,191,136.53,191.1Z"/><path class="cls-1" d="M136.08,191.15a.47.47,0,0,1,.27.07s0-.08,0-.1Z"/><path class="cls-1" d="M75.47,197.17l0-.06C75.27,197.38,75.34,197.33,75.47,197.17Z"/><path class="cls-1" d="M115.56,198.22l0,0,0,0Z"/><path class="cls-1" d="M115,198.7c.26-.81.41-.71.6-.54l-.2-1.88Z"/><path class="cls-1" d="M91.46,198.95l.43.58c-.51,1-.89.63-.49,1.45.06-2,1.66-.21,1.72-2.24l.28.43c-.08,0-.09.1-.17.08.55,1,.41-1.47,1.11-1.18.25.16.42.45.25.69l.55-.5c.16,0,.12.39,0,.35l.83-.16v.06a7.2,7.2,0,0,1,.52-1c.21.29-.11.22-.05.47l.46-.49c.19.53-.19,1-.51,1,.43,2,.38-.51,1.31.68l-.44.26c.28,1.16.62.74,1.11,1.46-.12-.38-1-1.82-.49-2.32.14.15.33.23.6-.18,0,.72.27.55.6.51l0,1c.36-.28.33-.77.54-1.2.4.09.48.84.57,1.46.64.15-.44-1.19.31-1.37.53.37.9,0,1.54-.6.37.33-.06.59.07.86l.33-.77c.08,0,.05.25,0,.37.28-.3,0-1,.46-1.22.12-1.06.89,1.54,1.43.34.13.27-.06.59,0,1a5.22,5.22,0,0,0,1.24-1.63l.52.63c-.38-.72.11-1.57.53-2.27-.13-.35-.25-.65-.33-.8l.68-.51a1.56,1.56,0,0,1-.1.89l.12-.23a1.76,1.76,0,0,1-.06,1.44c-.08-.19-.16-.39-.24-.59a5.61,5.61,0,0,0-.29,1.79.53.53,0,0,1,.22-.26,1,1,0,0,0-.05.4c0,.1.09-.11.2-.36l.15,1.07,0-.42.89.67c.64-1.08,1.19-2.66,2.2-3.1a6.8,6.8,0,0,0-.07,2.21c-.28-1-.78.42-1.3.22.27.1.21.55.14.7l.93-.9c0,.76.2.57.44.88-.18-1.5.69-1,1.07-1.46,0,.5-.07,1-.53.9.51,1.13.66-1.76,1.16-.8-.11,0-.17-.07-.22.19a.42.42,0,0,1,.76.35h-.11c.75.18,2.28,0,2.4-1.26,0,.16-.1,1.54-.14,1.8l1.34-4.29c-.12,1.1.33,3.71-.29,4.32.18.16.4.34.78,0a3.42,3.42,0,0,1-.14-1.68,6.86,6.86,0,0,0,.88,1.69c-.18-.24,0-2,.31-1.9a18.4,18.4,0,0,1-.08,1.88l.72-1.69a3.76,3.76,0,0,0,.13,1.91c-.07-.33.62,0,.81-.14l-.3-.39c.81.25.8-2.37,1.61-2.28-.1.35-.24,2.14.17,2.36.19-.86.83-4.16,1.54-4.82l.14.49.55-.56a39.15,39.15,0,0,1-1.82,5.1c.3.39.08.58.54.54a.56.56,0,0,1-.38.73l1.06.3c0-1,.81-1,.77-1.85l-1.15,1c0-1,.66-2.86,1.41-2.68.19.4-.14,1.8-.13,2.13.1-.35.71-.66.78-.42l-.32.54c.42.38.68-1.34,1.18-.37.17.06.52,1.3.55.7a22.45,22.45,0,0,1-.15-5.57,8.25,8.25,0,0,1,1.11,1.67c.29.9-.43,2.15-.19,2.93a1.85,1.85,0,0,1,.23-.72c.18.24-.08.85.32.73.07-1,.8.09.19-.86.39-.29.41.21.86.17a3.93,3.93,0,0,1,.79-2.54,2.43,2.43,0,0,0,.11.75c.79.09,1.22.56,2,.57.07.25.42.55.27,1,.11-.18.2-.53.43-.55.44.88-.51.14-.17,1.2,0-.59.59-.82.91-1.19-.1-.92-.75-.18-1.07.19a4.22,4.22,0,0,1,1.34-3.18c.61-.31.27.82.37.64,1.15.22,1-2.21,1.94-1.3.38.81,0,1.6.1,2.19-.5.31-.77-.51-1.11-.48l.42.38c-.16.27-.49.47-.67.24.32.72,1.95.14,2.84.81.16-.27.43-.55.3-.87L136,195c-.26-.65.53-.9.17-1.2.38-.46.8-1.18,1.33-.81l.1.92c0-.27-.35-.55-.5-.27.22-.41.81,1.24,1.06,0l-.37-.64c.38-.46.85-1.44,1.32-1.15-.21-.91-.11.1-.44-1,.29,1.32-1.2-.06-.74,1.33-.34-1.23-.59-.52-1-1.57,0,.3.16.58-.24.43a1.7,1.7,0,0,1-.09.27l0,0,0,0s0,.05,0,0a1.18,1.18,0,0,1,.2.46c-.2.7-.82.67-1,1-.23-.14.1-.35,0-.67l-.32.54c0-.67-.62-1.12-.07-1.51l-.5,0c-.29-.38-.7-.53-.94-.24-.23-.15-.59.75-.39.22l-.78.42v-.17c-.77-.08-1.58,1.12-2.46-.1a.89.89,0,0,1-1,.19l-.08-.58c-.33.2-1-.58-1.14,0-.36-1.57-1.61-.34-2.2-.62l0,.76a2.18,2.18,0,0,0-1.29.48l0,.67c-.43.55-1.11-.48-1.79-.41,0-.26.22-.19.34,0-.81-1.52-1.72,1.11-2.46,0-.18.24-.32.16-.45,0a.06.06,0,0,0,0,0h-.08c-.08-.12-.16-.25-.26-.36a1.41,1.41,0,0,0,.22.36,1.18,1.18,0,0,0-.57.27l-.09-.72,0,0c-.21-.27-.17.34-.06.89a1.6,1.6,0,0,0-.28.44c-.17-1.17-.55.39-.78-.85-.14.61-1.06.46-1.17,1.73,0-.17-.07-.25,0-.26-.24-.15-.47-.29-.68.07l-.1-.92-.51,1.23a1.46,1.46,0,0,1-.13-1.59c-.75,1.09-.61.41-1.24,1.49l0-.59c-.23,0-.59.82-.73.33-.51-1.13-2.52-.16-3.82-1.2.25,1.75-.61-.78-.66.57-.08-.41-.26-.65,0-1-.67.41-1-.66-1.46.49-.08-.42.14-.61.07-.85-.05.09-.21.36-.28.11s.1-.35.2-.53c-.68.07-.75,1.34-.8,2.54-.35-.57-.52-.49-.77.3-.12-.39-.32-.8.1-.94-.24-.06-1.45-.57-1.48.39-.07-.24-.33-.07-.4,0a2.8,2.8,0,0,0-1.11-.05l.15.16c-.21,1.16-.44.26-.86.4v-.12c-1-.83-.42.4-1.37-.55l.05.72c-.09,1.55-.85-.91-1.4-.32l.2.41c-.3.53-.85-2.1-1.15-2.3-.07-.13.1-.22.2-.32-.8-.91-.1.94-.7,1.16-.11-.51.14-1.29-.26-1.39-.2-.41-1.16,1.65-1.7.68.12.39.24.78,0,1.08-.42.14-1.14-1.48-1.53-.25a.71.71,0,0,1-.08-.31c-.32.32-1.05.53-1.25,1.2-.3-2.49-2,1.21-2-1.08l-1,.12,0-.23c-.64-.15-.86.4-1.08.95-.15-.16,0-.37,0-.49-.93-.46-1-.36-1.8.78l-.08-.74c-.21.43-1.34-1.17-2.25-.3a.74.74,0,0,1,.1-.33c-1,.87-2.45-2.06-2.83.65l-.68.67c.87.21-.13,1.17.23,1.62-.34.16-.89-.82-.47-1l.07.14c.16-1.41-1.09-.5-1.06-1.46-1.72.07-3.4-.71-5-.77l.19,1.1-.56-.06c-.15-.26-.2-.86.2-.81-.21-.62-.67.52-.68.76-.79-.44.31-1.28.07-1.31l-.33.08.07.13c-.27.45-.29.92-.77.87-.31-.22-.16-.68-.28-.72s0-.11-.18,0l-.71-.09.28.87c-.31.43-.67,0-.34.94-.48-1.51-2.64-.54-2.94-1a1.22,1.22,0,0,1-1.41.54c.13.18.21,1.15-.25,1,.17-2-.85-.87-1.22-2.32.34,1-1.32.24-.79,1.6-.39-.16,0-.75-.32-1.23-.92.78-2-.51-3.17-.24,0,.26.17.67-.07,1.06l-.6-1.32c-.22.13-.21,1.52-.62.61.06.22.14.56,0,.64-2.23-1.29-4.56,1.05-6.83-1.36.31.51.1.56-.13.58.15.12,0,.65,0,1l-.95-1c-.17,1-1,.07-1.12,1l.3-.17c-.4,1.12.56,2.49.5,3.93.45-1.27,1.18,1.89,1.91.06.16.29-.14.46-.05.8.19-.62.41-.74.83-.47l0,.15c1.17-.15,1.67.46,3,.86l-.1-.71c.28.1.34.32.47.5.32-1.08-.79-.06-.5-1.25.37,1.45,2,0,2.24,1.66.43,0-.13-.82.31-.81l.12.44.11-.57c.28.09.43.65.44,1-.07,0-.2.11-.27.14.37.52,1-.18,1.17,0l-.42-.27c1.19-.42,2.63.17,3.78-.74l-.09-.34c.87-.62.7.37,1.66.08l0,.08a.74.74,0,0,1,.71-.46c-.24.39.46.76.14,1.2.95-.67.47-.52,1.1-1.77l.14.56c.21-.5.23-.77.71-.91-.39.48.31.85-.13,1.48,1,1.22,1.49-1.23,2,.55.46-1.54-.87-.85-.61-1.18-.22-.5.38-1.15.7-1s.55,2,1.36,1.94c-.08,0-.09.11-.17.1.3.39.59-.53,1,.11.21-.93.48.05.54-1.13l-.74.27c.42-.31.81-1.7,1.51-1a2.17,2.17,0,0,1-.4.73c.2.35.39-.23.6.13-.06,1.19-.9.26-1.35,1.16.22.5.85-.86.63.43.33-1.64.8.21,1.34-1l0,.71c.09-.11.27-.45.43-.43l-.29.92c.44-.79.85.69,1.28.26-.89,0-.2-.86-.58-1.38,1.1-1,.63,1.86,1.86,1.52-.17.1-.62-.43-.36-.76a1.72,1.72,0,0,1,.69.79c.81-.15-.13-.73.22-1.17.28.87.4-.35.76-.63v.72c.93.46.25-1.51,1.08-.95l-.35,1,.44-.26-.09.82c.47-.61.62-.45,1.09-.22-.11-.51.06-1.31.47-1.34.28.43-.16.69.43.58-.13.45-.28,1-.53.35,0,.24-.13.45-.16.69.3.49.76.11,1,.11a.35.35,0,0,1-.23-.17l.84-1a.73.73,0,0,1-.08.7c.17-.08.29-.41.54-.47-.07.59,0,1.2-.41,1.47l.81-.65c.05.26.41.7.31.92.45.35,1.09-1.14,1.69-.68a.52.52,0,0,1,.22-.31c.56.13,1,.85,1.71,0l.37,1.05c.52-.24-.51-1.33.35-1.73.61-.34.23.9.44,1.19.3-.53.83-1.61,1.39-.76C91.77,199,91.63,198.87,91.46,198.95Zm6.37-.47c-.12.15-.37.62-.46.19C97.5,197.84,97.61,198.24,97.82,198.48Zm9.68-1.74c-.09.24-.23.12-.39-.15C107.22,196.52,107.36,196.55,107.5,196.74Zm27-5v0C134.17,191.45,134.27,191.56,134.46,191.7Zm.57.31a.39.39,0,0,0,0-.3c0,.18-.17.2-.31.14C134.79,192,134.86,192.17,135,192Zm-61.36.29.11.19C73.53,192.7,73.6,192.51,73.67,192.3Z"/><path class="cls-1" d="M106.4,197.73a1.86,1.86,0,0,1-.05-.39A.38.38,0,0,0,106.4,197.73Z"/><path class="cls-1" d="M87.5,199.33h0a.79.79,0,0,0,0,.13Z"/><path class="cls-1" d="M126.18,198.15a.81.81,0,0,1-.23-.37C125.95,198,126,198.1,126.18,198.15Z"/><path class="cls-1" d="M138.06,190.78l-.37.19c.18,0,.24.12.33.24C138,191,137.94,190.79,138.06,190.78Z"/><path class="cls-1" d="M141.24,195.26c.05-.09.11,0,.17-.1v-.34C141.16,194.85,141,195.12,141.24,195.26Z"/><path class="cls-1" d="M138.4,193.19c0,.61.26.4.51.29h0C138.94,192.63,138.67,192.91,138.4,193.19Z"/><path class="cls-1" d="M139,193.46a.34.34,0,0,1,.24,0C139.24,193.1,139.11,193.37,139,193.46Z"/><path class="cls-1" d="M135.76,191.61c.12.16.08-.78.15-.53C136,190.3,135.09,192,135.76,191.61Z"/><polygon class="cls-1" points="138.61 195.19 138.51 194.44 138.37 195.05 138.61 195.19"/><path class="cls-1" d="M136.58,194.64l.41.21a.3.3,0,0,1,.11-.26C136.85,194.57,136.57,194.42,136.58,194.64Z"/><path class="cls-1" d="M137.1,194.59a.31.31,0,0,0,.33-.12A.63.63,0,0,0,137.1,194.59Z"/><polygon class="cls-1" points="138.05 195.42 137.93 195.26 137.63 195.21 138.05 195.42"/><path class="cls-1" d="M132.18,194.5l-.45.22c0,.26.08.42.24.31S132.25,194.75,132.18,194.5Z"/><path class="cls-1" d="M133.53,196.55a1.53,1.53,0,0,1-.2-.57v.93Z"/><path class="cls-1" d="M132.23,196.77c0,.26-.65.74-.08.68C132.19,197.2,132.64,197,132.23,196.77Z"/><polygon class="cls-1" points="125.49 195.59 125.6 195.58 125.59 194.05 125.49 195.59"/><path class="cls-1" d="M119.55,199.25c.53.37.13-.94.6-.49.12-.36-.39-.37-.26-.68C119.57,198.46,119.4,198.24,119.55,199.25Z"/><path class="cls-1" d="M119.89,198.08a1.57,1.57,0,0,0,.16-.23A.74.74,0,0,0,119.89,198.08Z"/><polygon class="cls-1" points="52.87 191.52 52.53 191.2 52.75 191.72 52.87 191.52"/><path class="cls-1" d="M52.21,192.66l-.08-1-.2.88C52,192.52,52.16,192.44,52.21,192.66Z"/><path class="cls-1" d="M98.77,200.44l0-.23c-.05-.25-.13-.27-.29-.31Z"/><polygon class="cls-1" points="94.15 199.71 94.23 199.73 94.08 198.85 94.15 199.71"/><path class="cls-1" d="M90.27,200.84c.16,0,.34-.16.5-.12C90.43,200.87,90.23,199.74,90.27,200.84Z"/><path class="cls-4" d="M98.87,113.33c9.1,3.87,53.93,31.52,53.93,31.52s.85.64.88,1c.22,2.29-4.8,7.83-4.8,7.83l-.48,38.68L93.08,163.12S89.77,109.46,98.87,113.33Zm15.07,56.41v-28.8c-10-12.95-12.9-5-12.9-5v27.93m39.57,3.77V156.15c-2.71-11.14-9.09-5.57-9.09-5.57v11.54"/><circle class="cls-5" cx="158.04" cy="159.78" r="127.4"/><text class="cls-6" transform="translate(52.91 230.44)">KULMAPECK</text><path class="cls-4" d="M238.09,84.47c1.28,1.38,2.32,3.26.8,7.52s-44.35,75-45.62,75.29-8.44,2.55-5.73-4.87c2.29-6.27,34.24-59.35,44.12-75.71C233.48,83.69,236.93,83.22,238.09,84.47Z"/><text class="cls-7" transform="matrix(0.97, 0, 0, 1, 718.93, 268.33)">Instruire Pour P<tspan class="cls-8" x="480.77" y="0">a</tspan><tspan x="520.95" y="0">nse</tspan><tspan class="cls-9" x="623.55" y="0">r</tspan><tspan class="cls-8" x="643.87" y="0">...</tspan></text><line class="cls-10" x1="176.44" y1="156.74" x2="186.98" y2="138.89"/><line class="cls-11" x1="194.44" y1="126.27" x2="204.98" y2="108.42"/><line class="cls-12" x1="210.96" y1="98.28" x2="221.51" y2="80.43"/><text class="cls-13" transform="translate(323.49 199.9) scale(0.85 1)">KULMAPECK</text></svg>